# Blender 5.0.1
# www.blender.org
o tripo_node_19ede4cc-e5cf-4f31-b346-7add5c24651b
v 0.000916 0.361572 0.153458 0.0314 0.0706 0.1412
v 0.001224 -0.127075 0.248795 0.0510 0.0706 0.1098
v 0.001683 -0.196838 -0.122124 0.1490 0.0980 0.0353
v 0.004582 -0.042576 -0.156128 0.5216 0.4667 0.4589
v 0.006054 -0.215958 -0.365082 0.0392 0.0549 0.0902
v 0.006591 -0.414368 0.497345 0.0745 0.0863 0.1059
v 0.006990 -0.320862 0.184036 0.0824 0.0941 0.1216
v 0.008339 0.204605 0.258911 0.0745 0.0824 0.1333
v 0.011384 0.299835 -0.212021 0.0902 0.1137 0.1961
v 0.014183 -0.169983 0.238617 0.1020 0.1530 0.2432
v 0.015210 -0.260590 -0.339691 0.0196 0.0235 0.0353
v 0.017092 0.419037 0.045532 0.0118 0.2000 0.3647
v 0.020510 -0.237595 -0.259735 0.0392 0.0510 0.0706
v 0.020571 -0.243881 0.229767 0.0471 0.0471 0.0588
v 0.025656 -0.116638 0.146027 0.2471 0.1569 0.1137
v 0.027306 -0.276764 -0.143219 0.0706 0.0824 0.1137
v 0.029655 0.084450 0.204758 0.3686 0.1922 0.1294
v 0.030449 -0.032043 0.171646 0.5569 0.3804 0.2627
v 0.031357 -0.255859 0.086342 0.2000 0.1176 0.0706
v 0.033772 -0.188309 0.251373 0.0431 0.0471 0.0667
v 0.034538 0.153809 -0.237991 0.0863 0.0980 0.1490
v 0.035389 -0.221207 0.350403 0.0784 0.0824 0.1137
v 0.036659 -0.282379 -0.009292 0.1176 0.0784 0.0431
v 0.040386 -0.025688 -0.174850 0.5804 0.5294 0.5255
v 0.040531 -0.242767 -0.321533 0.0314 0.0353 0.0471
v 0.044384 -0.212036 -0.068634 0.1451 0.0863 0.0392
v 0.046478 0.332520 0.185898 0.0706 0.0863 0.1333
v 0.048332 -0.308044 0.034054 0.0353 0.0431 0.0510
v 0.050415 -0.319946 0.314575 0.0510 0.0549 0.0588
v 0.051224 -0.328552 -0.063896 0.0471 0.0588 0.0784
v 0.055321 -0.266388 0.166122 0.0627 0.0863 0.1176
v 0.056870 -0.113823 0.250397 0.0588 0.0745 0.1020
v 0.058968 -0.305542 -0.339294 0.0627 0.0706 0.0824
v 0.059380 0.044609 -0.194962 0.1137 0.0980 0.1451
v 0.062981 -0.289825 0.110344 0.0706 0.0706 0.0706
v 0.066566 -0.269318 -0.158234 0.0706 0.0863 0.1294
v 0.066917 0.365112 -0.125351 0.0549 0.0824 0.1255
v 0.069122 -0.245575 0.322449 0.0784 0.0824 0.0980
v 0.069763 -0.233414 0.239044 0.0902 0.0941 0.1059
v 0.071533 -0.346558 0.199966 0.0510 0.0471 0.0588
v 0.074631 -0.096046 -0.192703 0.0627 0.0784 0.1137
v 0.075851 -0.189148 0.098457 0.2627 0.1490 0.0784
v 0.078735 -0.362915 0.095680 0.0353 0.0353 0.0431
v 0.080078 0.143967 0.235962 0.0706 0.0784 0.1294
v 0.082573 -0.294342 0.213165 0.0510 0.0431 0.0392
v 0.083832 -0.298248 0.273407 0.0824 0.0824 0.0824
v 0.086517 -0.005038 0.185577 0.2588 0.0824 0.1882
v 0.087143 0.260284 -0.218430 0.0706 0.0824 0.1412
v 0.087433 -0.414124 0.041744 0.0392 0.0431 0.0549
v 0.089638 -0.414642 0.153397 0.0510 0.0510 0.0510
v 0.090118 -0.335571 -0.193192 0.0353 0.0431 0.0392
v 0.096802 0.393127 -0.042950 0.0353 0.0588 0.1059
v 0.100327 -0.411804 -0.472656 0.0431 0.0549 0.0824
v 0.100433 0.049820 -0.194839 0.1059 0.0863 0.1294
v 0.100777 -0.381989 -0.087532 0.0353 0.0392 0.0471
v 0.101334 -0.116310 -0.178467 0.0863 0.1059 0.1530
v 0.101479 -0.336945 0.174881 0.1020 0.0941 0.0902
v 0.104088 -0.304626 -0.071579 0.0392 0.0431 0.0549
v 0.105286 -0.231277 -0.350677 0.0392 0.0510 0.0667
v 0.107094 0.224503 0.237778 0.0941 0.1137 0.1765
v 0.107986 -0.297150 -0.197678 0.0667 0.0706 0.0784
v 0.109451 -0.414673 0.419434 0.4432 0.4432 0.4628
v 0.110985 0.372711 0.090340 0.0157 0.0549 0.1098
v 0.111656 -0.366486 -0.313446 0.1176 0.1843 0.3882
v 0.111732 -0.299072 -0.281097 0.0275 0.0314 0.0431
v 0.116318 -0.414734 -0.146652 0.0549 0.0588 0.0706
v 0.118874 -0.332062 -0.155243 0.0784 0.0824 0.0902
v 0.120003 -0.301880 0.083351 0.0157 0.0157 0.0235
v 0.121315 -0.274628 0.036690 0.0275 0.0314 0.0314
v 0.122185 -0.222168 -0.004316 0.1608 0.1020 0.0510
v 0.122246 0.395996 0.012221 0.0314 0.0667 0.1255
v 0.125671 0.099426 0.191071 0.1647 0.0667 0.0431
v 0.126160 -0.298737 -0.236557 0.0706 0.0706 0.0784
v 0.126297 0.150818 -0.209381 0.0745 0.0784 0.1216
v 0.127090 0.338013 0.146637 0.0510 0.0667 0.1137
v 0.129745 -0.414703 -0.414764 0.0745 0.0745 0.1059
v 0.130051 -0.223846 -0.176254 0.0510 0.0588 0.0745
v 0.133408 -0.176392 0.196335 0.0627 0.0706 0.0863
v 0.134552 -0.262909 -0.082100 0.0235 0.0235 0.0235
v 0.143051 0.273773 0.205826 0.1451 0.1765 0.2510
v 0.144791 -0.223862 -0.087425 0.0549 0.0627 0.0784
v 0.149704 -0.223434 0.134872 0.0627 0.0627 0.0706
v 0.149811 0.338562 -0.110847 0.0824 0.1137 0.1882
v 0.152588 0.073814 -0.182922 0.7686 0.5921 0.4667
v 0.163223 0.190552 0.208588 0.0863 0.0863 0.1412
v 0.164536 -0.071732 -0.156586 0.5647 0.4706 0.4235
v 0.165024 0.065865 0.186661 0.7921 0.6039 0.4745
v 0.166107 -0.238419 0.016661 0.0196 0.0196 0.0196
v 0.167007 -0.089531 0.154343 0.6039 0.4353 0.3098
v 0.167297 -0.147186 -0.160034 0.0784 0.0824 0.0902
v 0.168594 -0.138199 -0.122360 0.4667 0.3019 0.1843
v 0.178406 0.233124 -0.188919 0.1176 0.1137 0.1490
v 0.191071 0.315216 0.071907 0.0353 0.0588 0.1255
v 0.195633 0.096550 -0.113655 0.7647 0.4745 0.2863
v 0.195969 -0.248627 -0.087143 0.0235 0.0314 0.0392
v 0.202713 -0.238602 -0.019241 0.0118 0.0118 0.0118
v 0.206070 0.258820 0.053730 0.4471 0.2627 0.1686
v 0.208435 0.105469 0.041275 0.7490 0.4902 0.2902
v 0.211151 0.091537 -0.056976 0.7843 0.5059 0.3059
v 0.211609 0.227295 0.160492 0.0706 0.0745 0.1294
v 0.215027 0.296387 -0.094727 0.0667 0.1020 0.1608
v 0.217331 -0.185760 -0.044422 0.3608 0.2118 0.1333
v 0.217545 0.195267 -0.136719 0.0667 0.0627 0.0980
v 0.221924 -0.003256 -0.135773 0.8039 0.5764 0.4118
v 0.231598 0.141953 -0.107353 0.2863 0.1569 0.1216
v 0.232452 0.160645 0.020102 0.6902 0.4706 0.3372
v 0.233429 0.229736 0.103302 0.0745 0.0588 0.0824
v 0.234192 -0.180954 0.043758 0.4157 0.2314 0.1255
v 0.234772 -0.056450 0.106934 0.7608 0.5216 0.3451
v 0.236450 0.108818 -0.004261 0.8313 0.5882 0.3921
v 0.236847 -0.133316 0.047176 0.7137 0.4745 0.2941
v 0.237839 0.148743 0.108818 0.1804 0.0980 0.1098
v 0.239731 0.230606 -0.128036 0.0627 0.0588 0.1137
v 0.244217 0.281403 -0.056129 0.0353 0.0431 0.1020
v 0.246338 -0.001544 0.061676 0.7882 0.5294 0.3137
v 0.252533 0.045330 -0.037735 0.8431 0.5451 0.2902
v 0.254028 0.270905 0.011086 0.0314 0.0275 0.0902
v 0.255585 -0.074326 -0.057739 0.5451 0.2980 0.2000
v 0.259094 -0.085724 0.033745 0.6785 0.3098 0.2039
v 0.265594 0.187851 -0.042427 0.0510 0.0510 0.0784
v 0.266388 -0.251068 0.105087 0.0353 0.0471 0.0431
v 0.266479 -0.225235 -0.098701 0.0392 0.0353 0.0314
v 0.274963 0.185867 0.004042 0.0824 0.0471 0.0667
v 0.280731 -0.043488 0.006936 0.6785 0.4941 0.3490
v 0.311188 0.013565 -0.005217 0.9019 0.6941 0.5019
v -0.005016 -0.307434 -0.456665 0.0353 0.0627 0.1020
v -0.009186 -0.285706 0.211487 0.0667 0.0784 0.1137
v -0.015217 -0.015982 0.176102 0.5098 0.2823 0.2000
v -0.016092 -0.021095 -0.203568 0.6197 0.4706 0.4196
v -0.018047 -0.259308 0.346222 0.0275 0.0314 0.0392
v -0.020826 0.050499 0.200027 0.3608 0.1451 0.0667
v -0.029358 -0.306732 0.424988 0.0902 0.1020 0.1216
v -0.029980 0.334076 -0.177078 0.0745 0.1294 0.2118
v -0.033455 0.253998 0.248184 0.0980 0.1216 0.1843
v -0.033688 -0.220169 0.152008 0.2078 0.1176 0.0627
v -0.035179 -0.199493 -0.214340 0.0549 0.0784 0.1333
v -0.035950 0.088776 -0.196243 0.5725 0.2745 0.1530
v -0.040913 -0.276154 0.379089 0.0588 0.0627 0.0784
v -0.045055 0.123848 -0.229980 0.0980 0.0863 0.1216
v -0.045437 -0.231613 0.303497 0.0549 0.0588 0.0706
v -0.047043 0.400543 -0.086197 0.0392 0.0863 0.1333
v -0.051769 0.228485 -0.238373 0.0784 0.0980 0.1412
v -0.056892 0.108154 0.226852 0.1059 0.0824 0.1098
v -0.059795 -0.153168 0.343018 0.0431 0.0745 0.1020
v -0.062714 0.079048 0.241852 0.7098 0.5608 0.4667
v -0.063736 -0.153244 -0.132187 0.1373 0.0941 0.0588
v -0.064194 -0.208939 -0.278900 0.0196 0.0235 0.0392
v -0.066124 0.040207 -0.171661 0.3804 0.2627 0.2588
v -0.066513 0.055096 -0.215576 0.7451 0.5686 0.4706
v -0.073868 0.341400 0.188034 0.0706 0.0941 0.1490
v -0.073975 0.412018 0.054466 0.2157 0.4235 0.5804
v -0.080078 -0.173141 -0.144409 0.0588 0.0510 0.0588
v -0.084732 0.194626 0.258026 0.0902 0.0902 0.1451
v -0.086670 -0.225769 -0.326202 0.0627 0.0863 0.1451
v -0.090950 -0.159286 0.138519 0.2118 0.1216 0.0627
v -0.091629 -0.414642 -0.498322 0.0510 0.0667 0.0980
v -0.094505 -0.246735 0.349060 0.0471 0.0510 0.0588
v -0.096489 -0.285797 -0.400177 0.0353 0.0549 0.0980
v -0.097198 0.306122 -0.197205 0.0745 0.1333 0.2118
v -0.100510 -0.079567 0.189377 0.0392 0.0549 0.0706
v -0.101135 0.405060 -0.062302 0.0392 0.1059 0.1843
v -0.108131 -0.166504 -0.303162 0.0314 0.0549 0.1020
v -0.111008 -0.067619 -0.162720 0.0588 0.0706 0.0941
v -0.112366 -0.293579 0.412140 0.0902 0.1059 0.1490
v -0.113609 0.131332 -0.216370 0.0745 0.1020 0.1412
v -0.113693 -0.342041 -0.450714 0.0392 0.0549 0.0980
v -0.117706 0.172852 0.243652 0.0863 0.0902 0.1373
v -0.131195 -0.244934 -0.313202 0.0392 0.0431 0.0588
v -0.131454 -0.218979 0.350220 0.0863 0.1137 0.1530
v -0.133041 0.236023 0.238724 0.0863 0.1059 0.1765
v -0.133453 -0.195801 0.253418 0.0314 0.0353 0.0431
v -0.134506 -0.202133 -0.317596 0.0549 0.0980 0.1647
v -0.139343 -0.124733 -0.107002 0.0706 0.0549 0.0471
v -0.145981 -0.166122 -0.188095 0.0627 0.0863 0.1255
v -0.149399 0.397766 -0.033756 0.0118 0.0784 0.1451
v -0.154373 0.060005 0.194031 0.0627 0.0706 0.1176
v -0.158890 -0.235336 0.221039 0.0471 0.0471 0.0549
v -0.160034 -0.227264 0.292419 0.0196 0.0314 0.0588
v -0.160446 0.326630 0.164917 0.0824 0.1176 0.1725
v -0.161026 -0.054054 -0.103111 0.0235 0.0353 0.0667
v -0.161743 0.173920 -0.207214 0.0784 0.0941 0.1373
v -0.161789 -0.172455 0.215302 0.0353 0.0510 0.0706
v -0.163254 -0.161896 -0.267731 0.0745 0.1255 0.2000
v -0.163452 -0.059048 0.113388 0.0275 0.0353 0.0471
v -0.165222 -0.162003 -0.264801 0.0078 0.0196 0.0588
v -0.165756 -0.225342 -0.277771 0.0235 0.0431 0.0627
v -0.165833 -0.414703 0.472443 0.0824 0.1059 0.1490
v -0.169525 -0.017853 -0.132721 0.0353 0.0588 0.1137
v -0.169922 0.312927 -0.157410 0.0980 0.1608 0.2549
v -0.175507 0.382477 0.050331 0.0824 0.2471 0.4039
v -0.176010 -0.372284 -0.406738 0.0314 0.0549 0.0941
v -0.180603 -0.190979 0.231644 0.0196 0.0235 0.0431
v -0.181381 0.187408 0.224380 0.0941 0.1020 0.1530
v -0.187424 -0.156219 0.106293 0.0941 0.0745 0.0588
v -0.189896 -0.184067 -0.271881 0.0745 0.1020 0.1569
v -0.190292 -0.254578 0.301208 0.0471 0.0549 0.0706
v -0.190659 -0.079620 -0.075920 0.0157 0.0353 0.0667
v -0.197937 -0.199142 0.325623 0.0902 0.1176 0.1804
v -0.198013 -0.212799 0.311859 0.0431 0.0471 0.0549
v -0.201691 0.173294 -0.173767 0.0824 0.0902 0.1373
v -0.205933 -0.414673 -0.363098 0.0588 0.0627 0.0941
v -0.208817 -0.131927 0.270996 0.0510 0.0863 0.1373
v -0.210144 0.247055 0.187729 0.1176 0.1451 0.2078
v -0.212524 -0.156021 -0.081993 0.0588 0.0784 0.1098
v -0.214417 -0.282501 -0.263824 0.0353 0.0667 0.1098
v -0.217026 0.069382 -0.128555 0.0588 0.0706 0.1176
v -0.217560 0.137039 0.178696 0.0745 0.0824 0.1294
v -0.218597 -0.088661 -0.031338 0.0431 0.0667 0.1059
v -0.219086 0.324127 -0.079445 0.0784 0.1137 0.1804
v -0.229660 -0.351440 0.370789 0.0706 0.1020 0.1530
v -0.231598 -0.085426 0.012611 0.0510 0.0471 0.0706
v -0.237473 0.052292 0.121155 0.0549 0.0627 0.1098
v -0.237869 -0.235565 -0.165115 0.0353 0.0588 0.0980
v -0.241119 -0.248657 -0.172318 0.0353 0.0627 0.1255
v -0.241943 -0.136002 -0.199249 0.0588 0.1020 0.1569
v -0.243057 -0.098419 -0.147049 0.0275 0.0627 0.1098
v -0.245163 -0.174347 -0.009745 0.0549 0.0588 0.0706
v -0.246918 -0.090469 0.221420 0.0667 0.1020 0.1569
v -0.247620 -0.262268 0.210266 0.0510 0.0627 0.0941
v -0.249924 -0.174469 0.102913 0.0471 0.0510 0.0588
v -0.251129 0.289490 0.118950 0.0902 0.1020 0.1569
v -0.251221 -0.414642 -0.194778 0.0471 0.0667 0.1137
v -0.251556 -0.224655 0.176239 0.0157 0.0196 0.0353
v -0.251801 0.060513 -0.076500 0.0510 0.0667 0.1098
v -0.254242 -0.163528 -0.167160 0.0745 0.1255 0.1922
v -0.254761 -0.201553 0.238220 0.0510 0.0706 0.1176
v -0.257172 -0.414490 0.309814 0.0471 0.0745 0.1137
v -0.257843 -0.340881 -0.201065 0.0431 0.0588 0.1176
v -0.257904 0.160568 0.138718 0.0863 0.0941 0.1451
v -0.258606 0.021404 0.068275 0.0471 0.0549 0.1020
v -0.259155 0.190231 -0.116013 0.0980 0.1137 0.1608
v -0.262421 0.301636 -0.015678 0.0706 0.1137 0.1765
v -0.266266 -0.249725 -0.075920 0.0549 0.0784 0.1176
v -0.274536 -0.231552 -0.006131 0.0471 0.0588 0.0784
v -0.275360 -0.414703 0.105896 0.0588 0.0667 0.0784
v -0.276306 -0.360321 0.185486 0.0431 0.0667 0.1137
v -0.276733 -0.340485 -0.049999 0.0471 0.0706 0.1176
v -0.279175 -0.092987 -0.008814 0.0431 0.0627 0.1098
v -0.279236 -0.261871 0.126282 0.0392 0.0627 0.1098
v -0.279968 -0.201080 -0.094742 0.0510 0.0784 0.1255
v -0.280426 0.099525 -0.045250 0.0588 0.0784 0.1216
v -0.280975 -0.081291 0.121468 0.0667 0.0902 0.1294
v -0.281067 0.229706 -0.063278 0.1137 0.1608 0.2275
v -0.282135 0.280243 0.050694 0.0745 0.1059 0.1608
v -0.283508 -0.199646 0.135849 0.0314 0.0431 0.0588
v -0.285645 -0.097618 -0.056274 0.0745 0.1176 0.1882
v -0.285645 -0.185349 0.185684 0.0627 0.0824 0.1255
v -0.289703 0.185165 0.082672 0.0784 0.0863 0.1373
v -0.292267 -0.089714 0.051235 0.0784 0.1020 0.1451
v -0.294067 0.128067 0.024666 0.0784 0.0902 0.1451
v -0.295776 -0.171539 0.119728 0.0510 0.0784 0.1098
v -0.297699 0.194138 -0.020357 0.0863 0.1137 0.1765
s 1
f 156 191 166
f 166 191 158
f 191 156 201
f 158 191 205
f 205 191 201
f 158 205 168
f 205 201 228
f 228 201 222
f 222 201 76
f 222 76 235
f 126 156 166
f 126 166 158
f 126 158 168
f 156 126 53
f 156 53 76
f 156 76 201
f 76 53 33
f 33 53 126
f 76 33 64
f 33 126 11
f 11 126 168
f 33 11 51
f 11 168 5
f 5 168 172
f 11 5 59
f 11 59 65
f 59 5 25
f 5 172 154
f 5 154 25
f 154 172 162
f 25 154 147
f 147 154 186
f 25 147 13
f 25 13 73
f 13 147 136
f 13 136 61
f 195 172 168
f 172 195 183
f 172 183 162
f 162 183 195
f 162 195 215
f 162 215 216
f 162 216 185
f 162 185 186
f 186 213 147
f 147 213 174
f 174 213 204
f 204 213 217
f 204 217 208
f 217 213 234
f 213 186 225
f 213 225 234
f 225 186 185
f 234 225 238
f 225 185 216
f 225 216 238
f 238 216 246
f 246 216 215
f 246 215 240
f 240 215 214
f 214 215 195
f 214 195 168
f 214 168 205
f 240 214 233
f 214 205 228
f 214 228 233
f 233 228 237
f 237 228 222
f 237 222 235
f 162 186 154
f 233 239 240
f 239 233 237
f 235 236 237
f 237 236 239
f 239 236 219
f 239 219 247
f 240 239 251
f 251 239 247
f 240 251 246
f 251 247 242
f 246 251 249
f 249 251 242
f 246 249 238
f 238 249 242
f 238 242 245
f 245 242 226
f 238 245 234
f 245 226 223
f 245 223 234
f 234 223 220
f 220 223 192
f 234 220 217
f 217 220 211
f 211 220 184
f 217 211 208
f 208 211 241
f 136 147 174
f 136 174 41
f 41 174 163
f 163 174 180
f 180 174 204
f 180 204 197
f 197 204 208
f 197 208 224
f 235 76 66
f 16 152 3
f 152 16 56
f 152 56 163
f 163 56 41
f 152 163 173
f 3 152 146
f 146 152 173
f 173 163 180
f 173 180 146
f 3 146 4
f 4 146 180
f 129 24 4
f 129 4 148
f 148 4 180
f 148 180 188
f 188 180 197
f 188 197 206
f 64 66 76
f 66 64 51
f 51 64 33
f 66 51 55
f 55 51 58
f 66 55 49
f 49 55 58
f 73 59 25
f 59 73 65
f 65 73 51
f 65 51 11
f 51 73 67
f 51 67 61
f 61 67 73
f 51 61 58
f 61 73 13
f 56 16 36
f 56 36 90
f 90 36 81
f 81 36 30
f 30 36 16
f 30 16 23
f 30 23 28
f 23 16 26
f 26 16 3
f 77 136 41
f 136 77 61
f 61 77 79
f 79 77 81
f 61 79 58
f 58 79 95
f 49 235 66
f 235 49 50
f 30 28 69
f 69 28 35
f 69 35 82
f 82 35 31
f 35 28 7
f 35 7 31
f 7 28 19
f 19 28 23
f 19 23 70
f 7 19 135
f 7 135 127
f 7 127 31
f 31 127 10
f 81 30 69
f 81 69 88
f 81 88 79
f 79 88 69
f 79 69 96
f 79 96 95
f 95 96 122
f 122 96 121
f 70 23 26
f 3 4 26
f 26 4 24
f 26 24 91
f 26 91 70
f 91 24 86
f 91 86 104
f 70 91 102
f 70 102 108
f 91 104 118
f 91 118 102
f 102 118 111
f 111 118 119
f 119 118 124
f 68 58 95
f 77 90 81
f 90 77 41
f 90 41 56
f 148 188 165
f 148 165 139
f 148 139 149
f 149 139 137
f 139 165 142
f 142 165 159
f 159 165 181
f 181 165 188
f 181 188 200
f 181 200 189
f 200 188 206
f 189 200 231
f 231 200 206
f 231 206 224
f 224 206 197
f 241 224 208
f 224 241 243
f 224 243 231
f 231 243 209
f 243 241 252
f 243 252 232
f 232 252 244
f 244 252 250
f 250 252 241
f 250 241 211
f 24 34 54
f 34 24 137
f 137 24 149
f 149 24 129
f 149 129 148
f 24 54 86
f 34 137 21
f 21 137 139
f 34 21 74
f 34 74 54
f 54 74 103
f 86 54 84
f 84 54 103
f 84 103 105
f 86 84 104
f 84 105 94
f 84 94 104
f 94 105 120
f 124 118 104
f 124 104 116
f 116 104 94
f 124 116 125
f 125 116 110
f 116 94 99
f 116 99 110
f 99 94 120
f 110 99 123
f 123 99 120
f 102 111 108
f 108 111 89
f 89 111 109
f 109 111 119
f 109 119 124
f 108 89 42
f 108 42 70
f 70 42 19
f 19 42 15
f 15 42 89
f 19 15 135
f 135 15 18
f 18 15 89
f 18 89 47
f 124 125 115
f 124 115 109
f 115 125 110
f 109 115 87
f 109 87 89
f 115 110 98
f 115 98 87
f 98 110 106
f 106 110 123
f 98 106 112
f 112 106 97
f 98 112 87
f 87 112 107
f 87 107 100
f 47 89 87
f 87 100 72
f 87 72 47
f 72 100 85
f 72 85 44
f 72 44 47
f 44 85 60
f 44 60 8
f 44 8 17
f 44 17 47
f 47 17 18
f 9 21 139
f 9 139 142
f 21 9 48
f 21 48 74
f 48 9 37
f 37 9 133
f 74 48 92
f 92 48 37
f 74 92 103
f 52 37 12
f 37 52 83
f 37 83 92
f 83 52 71
f 103 92 113
f 113 92 83
f 103 113 105
f 83 71 101
f 83 101 113
f 101 71 114
f 101 114 113
f 113 114 105
f 105 114 120
f 209 189 231
f 159 181 189
f 243 232 209
f 209 232 190
f 190 232 244
f 209 190 175
f 209 175 189
f 175 190 151
f 159 189 161
f 161 189 175
f 161 175 151
f 159 161 141
f 141 161 151
f 141 151 12
f 141 12 37
f 133 9 142
f 133 142 159
f 133 159 141
f 133 141 37
f 117 120 114
f 120 117 123
f 117 114 71
f 123 117 97
f 123 97 106
f 117 71 93
f 117 93 97
f 52 12 71
f 71 12 63
f 71 63 93
f 97 93 107
f 97 107 112
f 107 93 100
f 93 63 75
f 93 75 100
f 75 63 27
f 100 75 80
f 80 75 27
f 100 80 85
f 85 80 60
f 60 80 27
f 60 27 8
f 235 227 236
f 227 235 62
f 227 62 187
f 236 227 210
f 210 227 187
f 236 210 219
f 219 210 196
f 210 187 164
f 210 164 196
f 164 187 132
f 196 164 138
f 138 164 132
f 220 192 182
f 220 182 184
f 184 182 160
f 184 160 194
f 194 160 177
f 194 177 155
f 194 155 184
f 184 155 128
f 128 155 18
f 18 155 135
f 219 198 247
f 198 219 196
f 247 198 202
f 198 196 169
f 169 196 138
f 169 138 22
f 169 22 144
f 169 144 198
f 198 144 202
f 202 144 199
f 202 199 226
f 199 144 157
f 157 144 130
f 157 130 140
f 226 199 178
f 178 199 157
f 226 178 223
f 223 178 192
f 178 157 171
f 171 157 140
f 178 171 192
f 171 140 14
f 192 171 182
f 135 155 177
f 135 177 127
f 127 177 2
f 2 177 160
f 2 160 171
f 171 160 182
f 2 171 20
f 20 171 14
f 20 14 39
f 39 14 45
f 45 14 46
f 45 46 57
f 57 46 40
f 46 14 130
f 130 14 140
f 40 46 29
f 46 130 38
f 46 38 29
f 38 130 22
f 22 130 144
f 38 22 138
f 38 138 29
f 29 138 132
f 40 29 62
f 62 29 132
f 40 62 50
f 50 62 235
f 62 132 6
f 62 6 187
f 187 6 132
f 10 127 2
f 43 40 50
f 43 50 49
f 43 49 58
f 43 58 68
f 43 68 40
f 40 68 57
f 57 68 45
f 45 68 82
f 82 68 69
f 69 68 121
f 82 31 78
f 82 78 39
f 82 39 45
f 39 78 20
f 78 31 32
f 78 32 20
f 32 31 10
f 20 32 2
f 2 32 10
f 121 95 122
f 95 121 68
f 69 121 96
f 250 211 230
f 250 230 248
f 250 248 244
f 244 248 221
f 248 230 212
f 221 248 229
f 229 248 212
f 221 229 203
f 212 230 184
f 203 229 207
f 207 229 212
f 207 212 184
f 203 207 193
f 193 207 176
f 176 207 184
f 193 176 170
f 170 176 167
f 176 184 143
f 176 143 167
f 167 143 153
f 143 184 128
f 143 128 145
f 145 128 131
f 131 128 18
f 143 145 17
f 131 18 17
f 131 17 145
f 143 17 8
f 230 211 184
f 218 202 226
f 202 218 247
f 218 226 242
f 218 242 247
f 179 193 170
f 193 179 203
f 203 179 221
f 221 179 190
f 221 190 244
f 190 179 151
f 179 170 150
f 179 150 151
f 150 170 153
f 153 170 167
f 151 150 1
f 151 1 12
f 12 1 63
f 63 1 27
f 1 150 134
f 134 150 153
f 1 134 27
f 134 153 143
f 27 134 8
f 8 134 143
